<mxfile
  host="Electron" 
  agent="Mozilla/5.0 (Macintosh; Intel Mac OS X 10_15_7) AppleWebKit/537.36 (KHTML, like Gecko) draw.io/25.0.2 Chrome/128.0.6613.186 Electron/32.2.5 Safari/537.36" 
  version="25.0.2"
  >
  <diagram
    name="-"
    >
    <mxGraphModel
      grid="1" 
      gridSize="10" 
      guides="1" 
      tooltips="1" 
      connect="1" 
      arrows="1" 
      fold="1" 
      page="1" 
      pageScale="1" 
      pageWidth="1" 
      pageHeight="1" 
      math="0" 
      shadow="0"
      >
      <root>
        <mxCell
          id="page"
          />
        <mxCell
          id="root" 
          parent="page"
          />
        <mxCell
          style="verticalAlign=top;aspect=fixed;align=center;spacingLeft=5;spacingRight=5;spacingBottom=5;strokeColor=none;" 
          id="shape_" 
          parent="root" 
          value=" " 
          vertex="1"
          >
          <mxGeometry
            as="geometry" 
            width="102" 
            height="94" 
            x="0" 
            y="0"
            />
          </mxCell>
        <mxCell
          style="rounded=1;whiteSpace=wrap;verticalAlign=top;align=center;sketch=0;html=1;labelPosition=center;verticalLabelPosition=bottom;spacingTop=-6;fontSize=11;fontStyle=1;fontColor=#999999;shape=image;aspect=fixed;imageAspect=0;image=data:image/svg+xml,PHN2ZyB4bWxucz0iaHR0cDovL3d3dy53My5vcmcvMjAwMC9zdmciIHhtbG5zOnY9Imh0dHBzOi8vdmVjdGEuaW8vbmFubyIgd2lkdGg9IjM4MC42MzY0OTE2NzUyNjI0NSIgaGVpZ2h0PSIyNzUuNjgyNTM0NzQ5ODYxMTMiIHZpZXdCb3g9Ii0wLjM2OTAwMDAxNzY0Mjk3NDg1IDAgMTAwLjcxMDAwNjcxMzg2NzE5IDcyLjk0MTAwMTg5MjA4OTg0Ij4mI3hhOzxzdHlsZSB0eXBlPSJ0ZXh0L2NzcyI+JiN4YTsJLnN0MHtmaWxsOiM0Mjg1ZjQ7fSYjeGE7CS5zdDF7ZmlsbDojYWVjYmZhO30mI3hhOwkuc3Qye2ZpbGw6IzY2OWRmNjt9JiN4YTs8L3N0eWxlPiYjeGE7CTxwYXRoIGNsYXNzPSJzdDAiIGQ9Ik0xMDAuMzQxIDQwLjA4TDc2LjQ0IDcyLjk0MWwtNDcuNjkyLS4wNy00Ljg0Ni02LjY1OSA0Ljg4MS02LjU4OSAzOC4xMDUuMDcgMjMuNzY1LTMyLjg0NXpNLS4zNjkgMzIuODYxTDIzLjUzMiAwbDQ3LjY5Mi4wNyA0Ljg0NiA2LjY1OS00Ljg4MSA2LjU4OS0zOC4xMDUtLjA3TDkuMzE5IDQ2LjA5M3oiLz4mI3hhOwk8cGF0aCBjbGFzcz0ic3QxIiBkPSJNMzYuMjQgNDMuNzUyVjI3LjU3NmwxNy4xMTcgOC4wMTh2MTYuOTc4eiIvPiYjeGE7CTxwYXRoIGNsYXNzPSJzdDIiIGQ9Ik01OC4wMTEgNDEuNjk1di04LjgybC05Ljk1My00LjYzN3YtNy45ODNsMTcuMTE3IDguMTIzdjE3LjAxM3oiLz4mI3hhOzwvc3ZnPg;strokeColor=none;" 
          id="automl_tables_" 
          parent="shape_" 
          value=" " 
          vertex="1"
          >
          <mxGeometry
            width="42" 
            height="34" 
            as="geometry" 
            x="30" 
            y="30"
            />
          </mxCell>
        </root>
      </mxGraphModel>
    </diagram>
  </mxfile>